<svg version="1.1" preserveAspectRatio="none" xmlns="http://www.w3.org/2000/svg" width="500" height="500" viewBox="0 0 500 500"><rect width="100%" height="100%" fill="#F7F7F7" fill-opacity="1"/><svg viewBox="555.4293 288.862 334.119 329.2889" width="333" height="328.1860765176479" x="83.5px" y="85.907px" xmlns="http://www.w3.org/2000/svg" xmlns:xlink="http://www.w3.org/1999/xlink" preserveAspectRatio="none"><defs></defs><style>.companyName {fill:#2B2B2B;fill-opacity:1;}.icon1 {fill:#2B2B2B;fill-opacity:1;}.icon2 {fill:#59C65B;fill-opacity:1;}.icon3 {fill:#6D6D6D;fill-opacity:1;}.icon3-str {stroke:#6D6D6D;stroke-opacity:1;}</style><g opacity="1" transform="rotate(0 655.665 288.862)">
<svg width="133.6476" height="202.7889" x="655.665" y="288.862" version="1.1" preserveAspectRatio="none" viewBox="34.198001861572266 26.02300262451172 31.601993560791016 47.95099639892578">
  <g transform="matrix(1 0 0 1 0 0)" class="icon1"><path d="M65.794,43.574c-0.003-0.076-0.018-0.152-0.058-0.223c-0.001-0.002-0.003-0.003-0.004-0.004  c-0.005-0.009-0.014-0.014-0.02-0.023c-0.04-0.06-0.089-0.107-0.147-0.144c-0.009-0.006-0.013-0.016-0.022-0.022l-7.394-4.127  v-8.237c0-0.084-0.026-0.159-0.062-0.228c-0.01-0.02-0.024-0.036-0.037-0.055c-0.035-0.05-0.077-0.091-0.127-0.125  c-0.012-0.008-0.017-0.022-0.03-0.029l-7.65-4.271c-0.152-0.084-0.336-0.084-0.488,0l-7.65,4.271  c-0.013,0.007-0.018,0.021-0.03,0.029c-0.05,0.034-0.092,0.075-0.127,0.125c-0.013,0.019-0.026,0.034-0.037,0.055  c-0.036,0.069-0.062,0.144-0.062,0.228v16.777l-7.394,4.127c-0.009,0.005-0.012,0.015-0.021,0.02  c-0.058,0.037-0.109,0.085-0.149,0.145c-0.005,0.008-0.014,0.013-0.019,0.022c-0.001,0.002-0.003,0.003-0.004,0.004  c-0.04,0.071-0.055,0.147-0.058,0.223c0,0.008-0.006,0.014-0.006,0.021v17.07c0,0.182,0.098,0.349,0.256,0.437l7.649,4.27  c0.007,0.004,0.015,0.002,0.022,0.006c0.068,0.034,0.141,0.058,0.222,0.058s0.155-0.024,0.222-0.058  c0.007-0.003,0.015-0.002,0.022-0.006L50,69.778l7.398,4.129c0.074,0.043,0.16,0.067,0.252,0.067s0.178-0.024,0.252-0.068  l7.642-4.265c0.158-0.088,0.256-0.255,0.256-0.437v-25.61C65.8,43.587,65.794,43.581,65.794,43.574z M57.15,39.032l-6.65,3.711  v-7.385l6.65-3.711V39.032z M42.85,72.623V56.699l6.65-3.712v15.924L42.85,72.623z M58.15,72.623V48.159l6.649-3.712v24.464  L58.15,72.623z"></path></g>
</svg>
</g><g opacity="1" transform="rotate(0 570.8615 595.6509)">
<svg width="303.2546" height="22.5" x="570.8615" y="595.6509" version="1.1" preserveAspectRatio="none" viewBox="2.9102 -30 516.3859 38.32040000000001">
  <g transform="matrix(1 0 0 1 0 0)" class="companyName"><path id="id-6izo4zJp27" d="M8.77-28.44L8.77 0L2.91 0L2.91-28.44L8.77-28.44Z M13.81-10.49L13.81-10.72Q13.81-15.59 16.12-18.55Q18.44-21.52 22.36-21.52L22.36-21.52Q25.84-21.52 27.77-19.14L27.77-19.14L28.01-21.13L33.12-21.13L33.12-0.70Q33.12 2.07 31.86 4.12Q30.60 6.17 28.32 7.25Q26.03 8.32 22.97 8.32L22.97 8.32Q20.64 8.32 18.44 7.39Q16.23 6.46 15.10 5L15.10 5L17.60 1.56Q19.71 3.93 22.71 3.93L22.71 3.93Q24.96 3.93 26.21 2.72Q27.46 1.52 27.46-0.68L27.46-0.68L27.46-1.82Q25.51 0.39 22.32 0.39L22.32 0.39Q18.51 0.39 16.16-2.59Q13.81-5.57 13.81-10.49L13.81-10.49ZM19.45-10.31L19.45-10.31Q19.45-7.44 20.60-5.81Q21.76-4.18 23.77-4.18L23.77-4.18Q26.35-4.18 27.46-6.11L27.46-6.11L27.46-15Q26.33-16.93 23.81-16.93L23.81-16.93Q21.78-16.93 20.61-15.27Q19.45-13.61 19.45-10.31Z M38.14-21.13L43.46-21.13L43.63-18.69Q45.90-21.52 49.71-21.52L49.71-21.52Q53.06-21.52 54.71-19.55Q56.35-17.58 56.39-13.65L56.39-13.65L56.39 0L50.74 0L50.74-13.52Q50.74-15.31 49.96-16.12Q49.18-16.93 47.36-16.93L47.36-16.93Q44.98-16.93 43.79-14.90L43.79-14.90L43.79 0L38.14 0L38.14-21.13Z M67.42-21.13L67.42 0L61.76 0L61.76-21.13L67.42-21.13ZM61.42-26.60L61.42-26.60Q61.42-27.87 62.27-28.69Q63.12-29.51 64.59-29.51L64.59-29.51Q66.03-29.51 66.89-28.69Q67.75-27.87 67.75-26.60L67.75-26.60Q67.75-25.31 66.88-24.49Q66.01-23.67 64.59-23.67Q63.16-23.67 62.29-24.49Q61.42-25.31 61.42-26.60Z M73.98-26.33L79.63-26.33L79.63-21.13L83.24-21.13L83.24-16.99L79.63-16.99L79.63-6.45Q79.63-5.27 80.07-4.77Q80.52-4.26 81.79-4.26L81.79-4.26Q82.73-4.26 83.45-4.39L83.45-4.39L83.45-0.12Q81.79 0.39 80.04 0.39L80.04 0.39Q74.10 0.39 73.98-5.61L73.98-5.61L73.98-16.99L70.90-16.99L70.90-21.13L73.98-21.13L73.98-26.33Z M96.91 0.39L96.91 0.39Q92.26 0.39 89.34-2.46Q86.42-5.31 86.42-10.06L86.42-10.06L86.42-10.61Q86.42-13.79 87.65-16.30Q88.88-18.81 91.14-20.17Q93.39-21.52 96.29-21.52L96.29-21.52Q100.62-21.52 103.11-18.79Q105.60-16.05 105.60-11.04L105.60-11.04L105.60-8.73L92.14-8.73Q92.42-6.66 93.79-5.41Q95.17-4.16 97.28-4.16L97.28-4.16Q100.54-4.16 102.38-6.52L102.38-6.52L105.15-3.42Q103.88-1.62 101.71-0.62Q99.55 0.39 96.91 0.39ZM96.27-16.95L96.27-16.95Q94.59-16.95 93.54-15.82Q92.50-14.69 92.20-12.58L92.20-12.58L100.05-12.58L100.05-13.03Q100.02-14.90 99.04-15.93Q98.06-16.95 96.27-16.95Z M124.66-28.44L130.54-15.63L136.46-28.44L142.87-28.44L133.53-10.31L133.53 0L127.57 0L127.57-10.31L118.24-28.44L124.66-28.44Z M143.74-10.51L143.74-10.76Q143.74-13.91 144.95-16.37Q146.17-18.83 148.44-20.18Q150.72-21.52 153.72-21.52L153.72-21.52Q158.00-21.52 160.71-18.91Q163.41-16.29 163.72-11.80L163.72-11.80L163.76-10.35Q163.76-5.49 161.05-2.55Q158.33 0.39 153.76 0.39Q149.19 0.39 146.47-2.54Q143.74-5.47 143.74-10.51L143.74-10.51ZM149.39-10.35L149.39-10.35Q149.39-7.34 150.52-5.75Q151.65-4.16 153.76-4.16L153.76-4.16Q155.81-4.16 156.97-5.73Q158.12-7.30 158.12-10.76L158.12-10.76Q158.12-13.71 156.97-15.33Q155.81-16.95 153.72-16.95L153.72-16.95Q151.65-16.95 150.52-15.34Q149.39-13.73 149.39-10.35Z M180.85 0L180.70-2.15Q178.61 0.39 174.91 0.39L174.91 0.39Q171.52 0.39 169.73-1.56Q167.94-3.52 167.90-7.29L167.90-7.29L167.90-21.13L173.55-21.13L173.55-7.48Q173.55-4.18 176.56-4.18L176.56-4.18Q179.43-4.18 180.50-6.17L180.50-6.17L180.50-21.13L186.16-21.13L186.16 0L180.85 0Z M203.18-21.27L203.10-15.84Q201.95-16.00 201.07-16.00L201.07-16.00Q197.86-16.00 196.87-13.83L196.87-13.83L196.87 0L191.22 0L191.22-21.13L196.55-21.13L196.71-18.61Q198.41-21.52 201.42-21.52L201.42-21.52Q202.36-21.52 203.18-21.27L203.18-21.27Z M241.10-14.84L241.10-13.57Q241.10-9.38 239.62-6.21Q238.14-3.05 235.37-1.33Q232.61 0.39 229.03 0.39L229.03 0.39Q225.50 0.39 222.73-1.31Q219.95-3.01 218.43-6.16Q216.90-9.32 216.89-13.42L216.89-13.42L216.89-14.82Q216.89-19.02 218.40-22.22Q219.91-25.41 222.68-27.12Q225.44-28.83 228.99-28.83Q232.55-28.83 235.31-27.12Q238.08-25.41 239.59-22.22Q241.10-19.02 241.10-14.84L241.10-14.84ZM235.17-13.48L235.17-14.86Q235.17-19.34 233.56-21.66Q231.96-23.98 228.99-23.98L228.99-23.98Q226.05-23.98 224.44-21.69Q222.84-19.39 222.82-14.96L222.82-14.96L222.82-13.57Q222.82-9.22 224.42-6.82Q226.03-4.41 229.03-4.41L229.03-4.41Q231.98-4.41 233.56-6.73Q235.15-9.04 235.17-13.48L235.17-13.48Z M245.67-21.13L250.99-21.13L251.16-18.69Q253.43-21.52 257.24-21.52L257.24-21.52Q260.60-21.52 262.24-19.55Q263.88-17.58 263.92-13.65L263.92-13.65L263.92 0L258.27 0L258.27-13.52Q258.27-15.31 257.49-16.12Q256.71-16.93 254.89-16.93L254.89-16.93Q252.51-16.93 251.32-14.90L251.32-14.90L251.32 0L245.67 0L245.67-21.13Z M274.95-30L274.95 0L269.29 0L269.29-30L274.95-30Z M286.36-21.13L286.36 0L280.69 0L280.69-21.13L286.36-21.13ZM280.36-26.60L280.36-26.60Q280.36-27.87 281.21-28.69Q282.06-29.51 283.52-29.51L283.52-29.51Q284.97-29.51 285.83-28.69Q286.69-27.87 286.69-26.60L286.69-26.60Q286.69-25.31 285.82-24.49Q284.95-23.67 283.52-23.67Q282.10-23.67 281.23-24.49Q280.36-25.31 280.36-26.60Z M291.69-21.13L297.00-21.13L297.18-18.69Q299.44-21.52 303.25-21.52L303.25-21.52Q306.61-21.52 308.25-19.55Q309.89-17.58 309.93-13.65L309.93-13.65L309.93 0L304.28 0L304.28-13.52Q304.28-15.31 303.50-16.12Q302.72-16.93 300.91-16.93L300.91-16.93Q298.52-16.93 297.33-14.90L297.33-14.90L297.33 0L291.69 0L291.69-21.13Z M324.73 0.39L324.73 0.39Q320.08 0.39 317.16-2.46Q314.24-5.31 314.24-10.06L314.24-10.06L314.24-10.61Q314.24-13.79 315.48-16.30Q316.71-18.81 318.96-20.17Q321.22-21.52 324.11-21.52L324.11-21.52Q328.44-21.52 330.93-18.79Q333.42-16.05 333.42-11.04L333.42-11.04L333.42-8.73L319.97-8.73Q320.24-6.66 321.62-5.41Q322.99-4.16 325.10-4.16L325.10-4.16Q328.37-4.16 330.20-6.52L330.20-6.52L332.98-3.42Q331.71-1.62 329.54-0.62Q327.37 0.39 324.73 0.39ZM324.09-16.95L324.09-16.95Q322.41-16.95 321.36-15.82Q320.32-14.69 320.03-12.58L320.03-12.58L327.88-12.58L327.88-13.03Q327.84-14.90 326.86-15.93Q325.89-16.95 324.09-16.95Z M359.56-10.02L354.42-10.02L354.42 0L348.56 0L348.56-28.44L359.65-28.44Q362.86-28.44 365.29-27.27Q367.72-26.09 369.03-23.94Q370.34-21.78 370.34-19.02L370.34-19.02Q370.34-14.84 367.48-12.43Q364.61-10.02 359.56-10.02L359.56-10.02ZM354.42-23.69L354.42-14.77L359.65-14.77Q361.98-14.77 363.20-15.86Q364.42-16.95 364.42-18.98L364.42-18.98Q364.42-21.07 363.19-22.36Q361.96-23.65 359.79-23.69L359.79-23.69L354.42-23.69Z M386.74-21.27L386.66-15.84Q385.51-16.00 384.63-16.00L384.63-16.00Q381.43-16.00 380.43-13.83L380.43-13.83L380.43 0L374.79 0L374.79-21.13L380.12-21.13L380.28-18.61Q381.98-21.52 384.98-21.52L384.98-21.52Q385.92-21.52 386.74-21.27L386.74-21.27Z M399.53 0.39L399.53 0.39Q394.89 0.39 391.97-2.46Q389.05-5.31 389.05-10.06L389.05-10.06L389.05-10.61Q389.05-13.79 390.28-16.30Q391.51-18.81 393.76-20.17Q396.02-21.52 398.91-21.52L398.91-21.52Q403.25-21.52 405.74-18.79Q408.23-16.05 408.23-11.04L408.23-11.04L408.23-8.73L394.77-8.73Q395.04-6.66 396.42-5.41Q397.80-4.16 399.91-4.16L399.91-4.16Q403.17-4.16 405.00-6.52L405.00-6.52L407.78-3.42Q406.51-1.62 404.34-0.62Q402.17 0.39 399.53 0.39ZM398.89-16.95L398.89-16.95Q397.21-16.95 396.17-15.82Q395.12-14.69 394.83-12.58L394.83-12.58L402.68-12.58L402.68-13.03Q402.64-14.90 401.66-15.93Q400.69-16.95 398.89-16.95Z M423.67-5.84L423.67-5.84Q423.67-6.88 422.65-7.47Q421.62-8.07 419.36-8.54L419.36-8.54Q411.82-10.12 411.82-14.94L411.82-14.94Q411.82-17.75 414.15-19.64Q416.49-21.52 420.26-21.52L420.26-21.52Q424.28-21.52 426.69-19.63Q429.10-17.73 429.10-14.71L429.10-14.71L423.46-14.71Q423.46-15.92 422.68-16.71Q421.90-17.50 420.24-17.50L420.24-17.50Q418.81-17.50 418.03-16.86Q417.25-16.21 417.25-15.21L417.25-15.21Q417.25-14.28 418.14-13.70Q419.03-13.13 421.14-12.71Q423.24-12.29 424.69-11.76L424.69-11.76Q429.16-10.12 429.16-6.07L429.16-6.07Q429.16-3.18 426.68-1.40Q424.20 0.39 420.28 0.39L420.28 0.39Q417.62 0.39 415.56-0.56Q413.50-1.50 412.33-3.15Q411.15-4.80 411.15-6.72L411.15-6.72L416.51-6.72Q416.58-5.21 417.62-4.41Q418.65-3.61 420.39-3.61L420.39-3.61Q422.01-3.61 422.84-4.23Q423.67-4.84 423.67-5.84Z M443.32 0.39L443.32 0.39Q438.67 0.39 435.75-2.46Q432.83-5.31 432.83-10.06L432.83-10.06L432.83-10.61Q432.83-13.79 434.06-16.30Q435.29-18.81 437.55-20.17Q439.81-21.52 442.70-21.52L442.70-21.52Q447.03-21.52 449.52-18.79Q452.01-16.05 452.01-11.04L452.01-11.04L452.01-8.73L438.56-8.73Q438.83-6.66 440.21-5.41Q441.58-4.16 443.69-4.16L443.69-4.16Q446.95-4.16 448.79-6.52L448.79-6.52L451.56-3.42Q450.29-1.62 448.13-0.62Q445.96 0.39 443.32 0.39ZM442.68-16.95L442.68-16.95Q441.00-16.95 439.95-15.82Q438.91-14.69 438.61-12.58L438.61-12.58L446.47-12.58L446.47-13.03Q446.43-14.90 445.45-15.93Q444.47-16.95 442.68-16.95Z M455.90-21.13L461.21-21.13L461.39-18.69Q463.65-21.52 467.46-21.52L467.46-21.52Q470.82-21.52 472.46-19.55Q474.10-17.58 474.14-13.65L474.14-13.65L474.14 0L468.50 0L468.50-13.52Q468.50-15.31 467.72-16.12Q466.93-16.93 465.12-16.93L465.12-16.93Q462.74-16.93 461.54-14.90L461.54-14.90L461.54 0L455.90 0L455.90-21.13Z M488.01-4.16L488.01-4.16Q489.57-4.16 490.55-5.02Q491.52-5.88 491.56-7.30L491.56-7.30L496.86-7.30Q496.84-5.16 495.68-3.37Q494.53-1.58 492.53-0.60Q490.53 0.39 488.11 0.39L488.11 0.39Q483.57 0.39 480.96-2.49Q478.34-5.37 478.34-10.45L478.34-10.45L478.34-10.82Q478.34-15.70 480.94-18.61Q483.54-21.52 488.07-21.52L488.07-21.52Q492.03-21.52 494.42-19.27Q496.82-17.01 496.86-13.26L496.86-13.26L491.56-13.26Q491.52-14.90 490.55-15.93Q489.57-16.95 487.97-16.95L487.97-16.95Q486.00-16.95 484.99-15.52Q483.98-14.08 483.98-10.86L483.98-10.86L483.98-10.27Q483.98-7.01 484.98-5.59Q485.98-4.16 488.01-4.16Z M510.60 0.39L510.60 0.39Q505.96 0.39 503.04-2.46Q500.12-5.31 500.12-10.06L500.12-10.06L500.12-10.61Q500.12-13.79 501.35-16.30Q502.58-18.81 504.83-20.17Q507.09-21.52 509.98-21.52L509.98-21.52Q514.32-21.52 516.81-18.79Q519.30-16.05 519.30-11.04L519.30-11.04L519.30-8.73L505.84-8.73Q506.11-6.66 507.49-5.41Q508.87-4.16 510.98-4.16L510.98-4.16Q514.24-4.16 516.07-6.52L516.07-6.52L518.85-3.42Q517.58-1.62 515.41-0.62Q513.24 0.39 510.60 0.39ZM509.96-16.95L509.96-16.95Q508.28-16.95 507.24-15.82Q506.19-14.69 505.90-12.58L505.90-12.58L513.75-12.58L513.75-13.03Q513.71-14.90 512.73-15.93Q511.76-16.95 509.96-16.95Z"/></g>
</svg>
</g><g opacity="1" transform="rotate(0 555.4293 531.6509)">
<svg width="334.119" height="50" x="555.4293" y="531.6509" version="1.1" preserveAspectRatio="none" viewBox="0.4 -25.44 170 25.44">
  <g transform="matrix(1 0 0 1 0 0)" class="companyName"><path id="id-D6z1nYkh9" d="M21.24-6.44L23.92-25.44L29.60-25.44L24.68 0L17.84 0L15-16.64L12.16 0L5.32 0L0.40-25.44L6.32-25.44L8.72-6.44L12.08-25.44L17.88-25.44L21.24-6.44Z M38.32-10.84L38.32-4.20L46.48-4.20L46.48 0L32.60 0L32.60-25.44L46.16-25.44L46.16-21.24L38.32-21.24L38.32-15.04L45-15.04L45-10.84L38.32-10.84Z M59.76-15.76L59.76-15.76L59.76-20.52Q59.76-21.52 58.68-21.52L58.68-21.52L55.40-21.52L55.40-14.76L58.68-14.76Q59.76-14.76 59.76-15.76ZM59.76-4.92L59.76-4.92L59.76-9.88Q59.76-10.40 59.52-10.62Q59.28-10.84 58.68-10.84L58.68-10.84L55.40-10.84L55.40-3.92L58.68-3.92Q59.76-3.92 59.76-4.92ZM49.76 0L49.76-25.44L60.32-25.44Q65.40-25.44 65.40-21.04L65.40-21.04L65.40-16.56Q65.40-13.60 63.60-12.84L63.60-12.84Q65.40-12.16 65.40-9.40L65.40-9.40L65.40-4.44Q65.40 0 60.32 0L60.32 0L49.76 0Z M83.28-25.44L83.28-21.24L75.32-21.24L75.32-14.24L82-14.24L82-10.28L75.32-10.28L75.32 0L69.60 0L69.60-25.44L83.28-25.44Z M96.08-5.20L96.08-25.44L101.80-25.44L101.80-4.44Q101.80 0 96.72 0L96.72 0L91.36 0Q86.32 0 86.32-4.44L86.32-4.44L86.32-25.44L92.04-25.44L92.04-5.20Q92.04-4.20 93.08-4.20L93.08-4.20L95.00-4.20Q96.08-4.20 96.08-5.20L96.08-5.20Z M115.00-5.20L115.00-5.20L115.00-9.80Q115.00-10.32 114.76-10.54Q114.52-10.76 113.92-10.76L113.92-10.76L110.40-10.76Q105.68-10.76 105.68-15.24L105.68-15.24L105.68-21.04Q105.68-25.44 110.72-25.44L110.72-25.44L115.60-25.44Q120.64-25.44 120.64-21.04L120.64-21.04L120.64-17.72L114.92-17.72L114.92-20.24Q114.92-21.24 113.84-21.24L113.84-21.24L112.48-21.24Q111.40-21.24 111.40-20.24L111.40-20.24L111.40-15.76Q111.40-15.24 111.64-15.02Q111.88-14.80 112.48-14.80L112.48-14.80L115.92-14.80Q118.48-14.80 119.60-13.70Q120.72-12.60 120.72-10.44L120.72-10.44L120.72-4.44Q120.72 0 115.68 0L115.68 0L110.84 0Q105.76 0 105.76-4.44L105.76-4.44L105.76-7.72L111.48-7.72L111.48-5.20Q111.48-4.20 112.56-4.20L112.56-4.20L113.92-4.20Q115.00-4.20 115.00-5.20Z M124.76 0L124.76-25.44L130.44-25.44L130.44 0L124.76 0Z M139.88-25.44L139.88-25.44L145.24-25.44Q150.28-25.44 150.28-21.04L150.28-21.04L150.28-4.44Q150.28 0 145.24 0L145.24 0L139.88 0Q134.80 0 134.80-4.44L134.80-4.44L134.80-21.04Q134.80-25.44 139.88-25.44ZM144.56-5.20L144.56-5.20L144.56-20.24Q144.56-21.24 143.52-21.24L143.52-21.24L141.60-21.24Q140.52-21.24 140.52-20.24L140.52-20.24L140.52-5.20Q140.52-4.20 141.60-4.20L141.60-4.20L143.52-4.20Q144.56-4.20 144.56-5.20Z M165.16-10.24L165.16-25.44L170.40-25.44L170.40 0L165.28 0L159.72-15.24L159.72 0L154.52 0L154.52-25.44L159.68-25.44L165.16-10.24Z"/></g>
</svg>
</g></svg></svg>